<?xml version="1.0" standalone="no"?>
<!DOCTYPE svg PUBLIC "-//W3C//DTD SVG 20010904//EN"
 "http://www.w3.org/TR/2001/REC-SVG-20010904/DTD/svg10.dtd">
<svg version="1.0" xmlns="http://www.w3.org/2000/svg"
 width="1139.000000pt" height="219.000000pt" viewBox="0 0 1139.000000 219.000000"
 preserveAspectRatio="xMidYMid meet">

<g transform="translate(0.000000,219.000000) scale(0.100000,-0.100000)"
fill="#000000" stroke="none">
<path d="M1355 2049 c-95 -12 -232 -52 -308 -90 -142 -72 -198 -120 -575 -494
-205 -203 -372 -375 -372 -381 0 -5 170 -179 378 -385 406 -404 462 -451 616
-510 149 -57 227 -72 381 -72 118 0 155 5 237 26 109 29 235 85 320 143 32 21
229 210 438 419 l381 379 -348 349 c-369 371 -448 441 -565 505 -90 50 -245
98 -358 112 -95 11 -125 11 -225 -1z m149 -196 c22 -73 86 -321 86 -336 0 -16
-6 -17 -52 -11 -29 3 -109 21 -178 39 -69 18 -189 50 -267 71 -79 20 -143 40
-143 45 0 13 81 78 136 109 96 54 253 98 356 99 46 1 58 -2 62 -16z m323 -68
c94 -47 194 -126 302 -239 l64 -68 -144 -144 c-79 -79 -148 -143 -153 -141
-12 4 -42 85 -72 197 -50 188 -114 430 -114 435 0 13 35 1 117 -40z m-972
-296 c172 -45 301 -83 309 -89 5 -5 -3 -23 -19 -42 -24 -30 -381 -392 -484
-493 l-41 -39 -125 124 c-69 69 -125 129 -125 135 0 20 404 415 425 415 11 0
38 -5 60 -11z m1602 -271 c68 -68 123 -127 123 -133 0 -6 -93 -103 -207 -217
l-208 -207 -192 52 c-106 29 -193 56 -193 61 0 4 12 22 26 40 37 44 515 526
523 526 3 0 61 -55 128 -122z m-863 73 c134 -83 156 -272 45 -378 -124 -117
-325 -72 -389 87 -20 48 -17 137 5 180 22 45 71 97 110 118 64 34 167 31 229
-7z m-516 -363 c16 -39 162 -567 162 -585 0 -10 -37 1 -96 27 -95 43 -173 102
-289 219 l-100 101 145 145 c80 80 147 145 151 145 3 0 15 -24 27 -52z m507
-305 c164 -40 396 -103 408 -110 14 -9 -34 -52 -108 -98 -110 -69 -291 -121
-394 -113 l-44 3 -42 155 c-23 85 -45 168 -49 183 l-7 28 48 -6 c26 -4 111
-23 188 -42z"/>
<path d="M1425 1253 c-31 -8 -84 -52 -106 -87 -23 -37 -25 -115 -5 -154 29
-56 104 -102 163 -102 78 1 160 74 170 152 l6 43 -32 -30 c-60 -56 -152 -31
-178 48 -14 42 -5 78 29 115 l21 22 -24 -1 c-13 -1 -33 -4 -44 -6z"/>
<path d="M5010 1555 c-72 -33 -110 -87 -110 -157 0 -88 46 -131 205 -191 68
-25 83 -53 43 -81 -43 -30 -103 -17 -144 30 l-20 25 -48 -27 c-26 -15 -50 -33
-53 -40 -9 -23 46 -85 93 -106 102 -44 220 -29 284 37 30 31 35 43 38 98 3 53
0 67 -20 97 -28 41 -78 71 -166 101 -36 12 -67 29 -73 40 -27 51 64 69 112 23
l26 -25 49 29 c27 15 50 35 52 43 3 18 -51 75 -92 96 -44 23 -134 27 -176 8z"/>
<path d="M7925 1557 c-139 -46 -214 -146 -215 -283 -1 -264 317 -392 502 -201
21 22 38 46 38 53 0 8 -25 26 -55 41 l-55 27 -27 -26 c-41 -38 -66 -48 -119
-48 -60 0 -107 30 -134 86 -34 69 -20 137 39 187 60 50 147 48 207 -5 l36 -31
54 26 c30 15 54 31 54 37 0 23 -83 99 -129 119 -63 27 -145 34 -196 18z"/>
<path d="M9670 1557 c-143 -40 -228 -160 -218 -307 15 -203 222 -325 411 -242
49 22 127 93 127 116 0 14 -82 66 -105 66 -6 0 -20 -9 -31 -21 -44 -49 -126
-64 -183 -34 -74 38 -105 115 -76 191 40 105 166 136 251 62 l36 -31 54 26
c30 15 54 33 54 40 0 21 -82 95 -130 116 -60 26 -135 33 -190 18z"/>
<path d="M11075 1555 c-114 -40 -151 -188 -67 -268 28 -26 93 -58 147 -71 73
-18 97 -61 50 -92 -37 -24 -93 -13 -128 26 l-28 31 -54 -31 c-30 -17 -55 -35
-55 -38 0 -4 8 -19 18 -35 62 -93 218 -124 324 -65 55 31 80 67 85 125 10 95
-44 156 -174 198 -71 22 -102 48 -87 72 7 11 26 19 47 21 29 3 42 -3 63 -23
l26 -26 51 29 c28 16 53 34 55 41 2 7 -16 32 -40 55 -65 62 -149 81 -233 51z"/>
<path d="M3107 1553 c-16 -4 -17 -24 -15 -281 l3 -277 63 -3 62 -3 0 59 c0 59
27 119 57 129 6 2 38 -32 72 -75 88 -116 82 -112 167 -112 41 0 74 4 74 9 0 5
-39 60 -88 122 -48 63 -98 129 -111 147 l-23 33 97 120 c54 66 95 122 93 125
-6 5 -69 9 -121 6 -34 -2 -43 -10 -119 -102 -55 -66 -85 -95 -90 -87 -4 7 -8
51 -8 98 0 81 -1 87 -22 93 -25 6 -64 6 -91 -1z"/>
<path d="M3852 1553 l-22 -4 2 -277 3 -277 63 -3 c50 -2 62 0 63 13 1 8 3 20
4 25 1 6 3 39 4 75 l1 65 34 0 c33 0 37 -4 86 -90 l52 -90 69 0 c48 0 69 4 69
13 0 6 -23 52 -50 101 -28 49 -50 92 -50 96 0 4 10 15 21 26 31 27 59 93 59
139 0 96 -66 169 -166 185 -58 10 -198 11 -242 3z m264 -148 c18 -18 23 -31
19 -48 -12 -41 -42 -57 -106 -57 l-59 0 0 65 0 65 60 0 c52 0 65 -4 86 -25z"/>
<path d="M4517 1554 c-4 -4 -7 -133 -7 -286 l0 -278 65 0 65 0 -2 283 -3 282
-55 3 c-31 2 -59 0 -63 -4z"/>
<path d="M5543 1554 c-10 -4 -13 -71 -13 -285 l0 -279 65 0 c36 0 66 1 66 3 1
1 4 52 8 112 l6 110 110 0 110 0 5 -110 5 -110 63 -3 62 -3 -2 283 -3 283 -39
3 c-83 7 -85 5 -88 -111 l-3 -102 -111 -3 -111 -3 -9 108 -9 108 -50 2 c-27 1
-56 0 -62 -3z"/>
<path d="M6322 1552 c-9 -7 -12 -70 -10 -283 l3 -274 59 -3 c41 -2 62 1 67 10
5 7 9 78 9 158 0 115 3 142 13 132 6 -7 53 -77 102 -155 l91 -142 54 0 55 0 0
280 0 280 -39 3 c-22 2 -50 1 -63 -2 -23 -6 -23 -8 -23 -135 0 -70 -3 -131 -7
-135 -4 -3 -46 54 -94 127 -76 117 -91 135 -119 141 -43 8 -82 7 -98 -2z"/>
<path d="M7193 1548 c-11 -14 -203 -533 -203 -549 0 -5 30 -9 66 -9 l66 0 21
50 21 50 99 0 99 0 21 -50 21 -50 68 0 c37 0 68 4 68 9 0 15 -192 535 -203
549 -6 7 -34 12 -72 12 -38 0 -66 -5 -72 -12z m101 -265 c9 -26 16 -50 16 -55
0 -4 -20 -8 -45 -8 -32 0 -45 4 -45 14 0 25 40 107 49 102 5 -3 16 -27 25 -53z"/>
<path d="M8497 1554 c-4 -4 -7 -133 -7 -286 l0 -278 174 0 c172 0 174 0 180
23 8 29 8 71 0 91 -5 13 -25 16 -115 16 l-109 0 -2 218 -3 217 -55 3 c-31 2
-59 0 -63 -4z"/>
<path d="M9085 1548 c-7 -19 -10 -198 -7 -391 l2 -168 63 3 62 3 0 280 0 280
-58 3 c-40 2 -59 -1 -62 -10z"/>
<path d="M10237 1553 c-4 -3 -7 -132 -7 -285 l0 -278 65 0 65 0 0 59 c0 57 27
118 56 128 6 2 44 -39 84 -92 l73 -95 78 0 c44 0 79 4 79 9 0 4 -49 72 -110
151 -60 79 -110 145 -110 148 0 3 45 60 100 127 54 68 96 125 93 129 -9 9
-146 7 -159 -2 -6 -4 -46 -49 -88 -100 -43 -52 -80 -92 -82 -89 -2 2 -7 42
-10 88 -3 46 -7 90 -9 97 -5 13 -106 18 -118 5z"/>
<path d="M3865 773 c-35 -9 -55 -35 -55 -69 0 -39 21 -56 88 -74 52 -13 58
-40 9 -40 -18 0 -38 5 -44 11 -14 14 -53 2 -53 -16 0 -24 43 -45 93 -45 94 0
133 86 56 125 -15 8 -36 15 -47 15 -10 0 -27 6 -37 14 -18 13 -18 14 2 24 15
8 27 7 47 -3 28 -15 66 -6 66 15 0 26 -82 54 -125 43z"/>
<path d="M4523 769 c-49 -14 -83 -62 -83 -116 0 -38 5 -50 34 -79 30 -30 40
-34 86 -34 46 0 56 4 86 34 29 29 34 41 34 79 0 53 -27 93 -76 113 -37 16 -37
16 -81 3z m90 -71 c36 -43 6 -108 -50 -108 -52 0 -82 43 -63 90 21 51 77 60
113 18z"/>
<path d="M5330 773 c-64 -21 -90 -56 -90 -124 0 -33 6 -47 34 -75 30 -30 40
-34 84 -34 39 0 57 6 79 24 l28 24 -28 13 c-21 9 -30 10 -39 1 -13 -13 -57
-16 -74 -4 -25 17 -36 53 -24 82 17 41 52 53 95 33 28 -13 37 -14 50 -3 20 16
4 37 -42 57 -34 14 -48 15 -73 6z"/>
<path d="M5960 773 c-32 -13 -50 -37 -50 -69 0 -39 21 -56 88 -74 25 -6 42
-17 42 -25 0 -18 -39 -20 -73 -4 -18 8 -30 8 -48 -1 l-23 -13 28 -23 c39 -34
117 -34 151 1 47 46 22 95 -60 116 -51 13 -62 39 -17 39 15 0 33 -5 39 -11 12
-12 53 4 53 20 0 30 -90 61 -130 44z"/>
<path d="M6715 766 c-43 -19 -66 -49 -72 -94 -10 -75 40 -132 115 -132 101 0
155 86 110 177 -24 48 -101 73 -153 49z m100 -69 c33 -47 5 -107 -49 -107 -78
0 -95 103 -22 130 28 10 54 1 71 -23z"/>
<path d="M8953 766 c-65 -30 -54 -107 19 -127 24 -6 49 -13 56 -15 6 -2 12
-10 12 -19 0 -18 -50 -21 -67 -4 -15 15 -63 3 -63 -15 0 -54 153 -67 180 -16
15 29 12 65 -7 83 -10 8 -39 21 -65 27 -53 14 -66 40 -20 40 15 0 32 -4 38
-10 12 -12 54 -1 54 15 0 40 -84 65 -137 41z"/>
<path d="M9710 768 c-13 -7 -31 -25 -39 -39 -23 -41 4 -74 74 -94 36 -11 55
-22 55 -32 0 -15 -21 -15 -90 2 -14 3 -32 1 -40 -4 -13 -9 -12 -13 6 -31 43
-43 137 -42 169 2 33 48 6 90 -70 109 -51 13 -62 39 -17 39 15 0 33 -5 39 -11
12 -12 53 4 53 21 0 32 -100 59 -140 38z"/>
<path d="M10362 763 c-72 -35 -86 -131 -28 -189 30 -30 41 -34 84 -34 58 0 97
25 118 76 33 79 -36 166 -130 164 -6 0 -26 -8 -44 -17z m87 -48 c34 -17 46
-54 29 -90 -22 -48 -97 -46 -118 4 -14 34 -4 60 32 85 27 19 23 19 57 1z"/>
<path d="M10698 773 c-50 -3 -58 -7 -58 -23 0 -16 7 -20 30 -20 32 0 34 -6 30
-78 -1 -18 1 -51 5 -72 6 -34 11 -40 31 -40 23 0 23 3 26 93 l3 92 33 3 c24 2
32 8 32 23 0 13 -7 19 -24 19 -13 0 -30 1 -38 3 -7 2 -39 1 -70 0z"/>
<path d="M10984 766 c-76 -34 -50 -113 44 -135 49 -11 57 -15 47 -30 -8 -14
-58 -14 -72 0 -13 13 -63 4 -63 -11 0 -18 44 -50 69 -51 74 -3 107 10 121 47
13 34 -3 69 -37 81 -58 21 -83 33 -83 41 -1 11 50 15 63 4 7 -6 21 -6 35 -1
19 7 21 12 13 28 -11 19 -60 41 -90 41 -9 -1 -30 -7 -47 -14z"/>
<path d="M3342 662 c-23 -60 -42 -112 -42 -115 0 -19 49 -4 64 18 12 18 25 25
49 25 37 0 51 -8 60 -32 7 -19 57 -26 57 -8 0 5 -18 57 -41 115 -40 104 -41
105 -73 105 -33 0 -33 -1 -74 -108z m88 9 c0 -5 3 -16 6 -25 4 -12 0 -16 -15
-16 -20 0 -30 28 -14 43 9 10 23 9 23 -2z"/>
<path d="M4110 655 l0 -115 24 0 c22 0 25 5 28 43 l3 42 53 3 52 3 0 -45 c0
-42 2 -46 24 -46 24 0 25 3 28 83 5 128 1 147 -28 147 -22 0 -24 -4 -24 -46
l0 -45 -52 3 c-33 2 -53 8 -54 16 -1 6 -2 26 -3 42 -1 25 -5 30 -26 30 l-25 0
0 -115z"/>
<path d="M4805 664 c19 -59 38 -111 43 -116 5 -5 20 -8 33 -6 19 2 27 14 39
56 9 29 20 53 25 53 5 0 16 -24 25 -53 14 -48 19 -53 46 -56 28 -3 32 1 42 35
7 21 23 73 36 116 l24 77 -28 0 c-27 0 -31 -5 -45 -55 -9 -30 -20 -57 -25 -60
-5 -3 -16 22 -26 55 -16 58 -18 60 -49 60 -31 0 -33 -2 -50 -61 -9 -34 -20
-57 -25 -53 -4 5 -15 33 -25 62 -15 46 -20 52 -45 52 l-28 0 33 -106z"/>
<path d="M5611 665 c-23 -58 -41 -110 -41 -115 0 -18 47 -10 61 9 8 11 29 22
46 26 27 5 37 2 56 -19 23 -25 67 -36 67 -17 0 5 -18 57 -41 115 -41 105 -41
106 -74 106 -33 0 -34 -1 -74 -105z m90 -28 c-5 -5 -17 -7 -26 -3 -13 5 -14
10 -4 28 11 21 12 21 25 3 9 -12 11 -22 5 -28z"/>
<path d="M6210 655 l0 -115 85 0 c78 0 85 2 85 20 0 16 -8 19 -57 22 -50 3
-58 6 -58 23 0 16 8 21 45 25 37 4 45 9 45 25 0 16 -8 21 -45 25 -25 3 -44 8
-42 13 1 4 2 14 2 22 0 12 13 15 55 15 48 0 55 2 55 20 0 18 -7 20 -85 20
l-85 0 0 -115z"/>
<path d="M7000 655 l0 -115 25 0 c18 0 25 6 26 20 1 11 2 30 3 43 1 19 8 23
46 27 37 4 45 9 45 25 0 16 -8 21 -42 23 -38 3 -43 6 -43 28 0 23 3 24 55 24
48 0 55 2 55 20 0 18 -7 20 -85 20 l-85 0 0 -115z"/>
<path d="M7430 655 l0 -115 25 0 c23 0 25 4 25 40 0 22 5 40 10 40 6 0 17 -18
26 -40 14 -35 20 -40 49 -40 29 0 34 4 50 46 19 51 35 45 35 -13 0 -28 3 -33
25 -33 l25 0 0 115 0 115 -33 0 c-36 0 -37 -1 -81 -113 -9 -21 -19 -36 -24
-33 -5 3 -21 37 -37 75 -27 68 -30 71 -62 71 l-33 0 0 -115z"/>
<path d="M7839 733 c11 -21 29 -51 40 -68 14 -20 21 -46 21 -77 0 -44 2 -48
24 -48 21 0 24 5 28 48 3 31 17 66 41 104 44 67 45 78 13 78 -18 0 -31 -10
-47 -40 -13 -22 -26 -40 -30 -40 -3 0 -18 18 -33 40 -19 29 -33 40 -51 40
l-25 0 19 -37z"/>
<path d="M8300 655 l0 -115 78 0 c52 0 84 5 99 15 29 20 38 62 18 91 -8 13
-15 41 -15 63 0 52 -17 61 -109 61 l-71 0 0 -115z m135 50 c0 -16 -8 -21 -37
-23 -35 -3 -38 -1 -38 23 0 24 3 26 38 23 29 -2 37 -7 37 -23z m23 -89 c5 -24
-14 -36 -60 -36 -36 0 -38 2 -38 31 0 30 1 30 47 27 37 -2 49 -7 51 -22z"/>
<path d="M8620 655 l0 -115 85 0 c78 0 85 2 85 20 0 18 -7 20 -55 20 -52 0
-55 1 -55 25 0 23 4 25 45 25 41 0 45 2 45 25 0 23 -4 25 -45 25 -41 0 -45 2
-45 25 0 24 3 25 55 25 48 0 55 2 55 20 0 18 -7 20 -85 20 l-85 0 0 -115z"/>
<path d="M9212 753 c2 -11 15 -20 33 -23 l30 -5 3 -93 c3 -90 3 -92 27 -92 24
0 24 2 27 93 l3 92 33 3 c24 2 32 8 32 23 0 17 -8 19 -96 19 -85 0 -95 -2 -92
-17z"/>
<path d="M9970 655 l0 -115 24 0 c22 0 25 5 28 43 l3 42 53 3 52 3 0 -46 c0
-45 1 -46 28 -43 l27 3 0 110 0 110 -27 3 c-27 3 -28 2 -28 -43 l0 -46 -52 3
-53 3 -3 43 c-3 37 -6 42 -28 42 l-24 0 0 -115z"/>
</g>
</svg>
